<?xml version="1.0" encoding="utf-8"?>
<!-- Generator: Adobe Illustrator 26.4.1, SVG Export Plug-In . SVG Version: 6.00 Build 0)  -->
<svg version="1.1" id="Layer_1" xmlns="http://www.w3.org/2000/svg" xmlns:xlink="http://www.w3.org/1999/xlink" x="0px" y="0px"
	 viewBox="0 0 85.79 42.28" style="enable-background:new 0 0 85.79 42.28;" xml:space="preserve">
<style type="text/css">
	.st0{fill:#010101;}
	.st1{fill:none;stroke:#3A53A4;stroke-miterlimit:10;}
</style>
<g>
	<path class="st0" d="M10.17,16.44c0,2.28-1.54,3.55-3.34,3.77c-0.61,0.07-1.08,0.09-1.79,0.09H3.22v4.67H0.75V12.59h4.29
		c0.72,0,1.18,0.02,1.79,0.09C8.71,12.89,10.17,14.16,10.17,16.44z M7.56,16.44c0-1.17-0.61-1.72-1.47-1.85
		C5.82,14.56,5.45,14.54,5,14.54H3.22v3.8H5c0.45,0,0.83-0.02,1.09-0.05C6.95,18.17,7.56,17.61,7.56,16.44z"/>
	<path class="st0" d="M25.27,18.78c0,3.88-2.31,6.44-6.12,6.44c-3.82,0-6.12-2.57-6.12-6.44c0-3.89,2.3-6.44,6.12-6.44
		C22.96,12.33,25.27,14.88,25.27,18.78z M22.67,18.78c0-2.91-1.33-4.59-3.52-4.59c-2.21,0-3.54,1.69-3.54,4.59
		c0,2.89,1.33,4.59,3.54,4.59C21.34,23.37,22.67,21.67,22.67,18.78z"/>
	<path class="st0" d="M38.17,24.97h-8.94V12.59h2.48V22.9h6.46V24.97z"/>
	<path class="st0" d="M44.42,21.23l-1.24,3.73h-2.64l4.47-12.38h3.1l4.38,12.38H49.8l-1.22-3.73H44.42z M45.04,19.28h2.91
		l-1.44-4.58L45.04,19.28z"/>
	<path class="st0" d="M65.66,24.97h-2.71c-0.31-0.84-0.48-1.6-0.61-2.76c-0.16-1.33-0.66-2.14-1.67-2.21
		c-0.34-0.02-0.65-0.02-0.97-0.02h-1.44v4.99h-2.48V12.59h4.52c0.72,0,1.18,0.02,1.79,0.09c1.79,0.22,3.25,1.15,3.25,3.28
		c0,1.6-0.95,2.6-2.42,3.01c1.22,0.47,1.69,1.49,1.83,2.87C64.92,23.35,65.16,24.27,65.66,24.97z M59.97,18.13c0.43,0,0.74,0,1-0.02
		c0.99-0.09,1.78-0.57,1.78-1.78c0-1.2-0.66-1.63-1.63-1.76c-0.29-0.04-0.59-0.05-1.04-0.05h-1.81v3.61H59.97z"/>
	<path class="st0" d="M69.32,24.97V12.59h2.48v12.38H69.32z"/>
	<path class="st0" d="M85.04,16.23H82.5c-0.14-1.26-0.84-2.05-2.14-2.05c-0.99,0-1.74,0.47-1.74,1.47c0,1.04,0.66,1.56,2.64,2.03
		c2.73,0.63,3.95,1.88,3.95,3.88c0,2.33-2.14,3.66-4.58,3.66c-2.96,0-4.9-1.31-5.13-3.91h2.53c0.27,1.36,1.31,2.06,2.57,2.06
		c1.13,0,2.03-0.61,2.03-1.56c0-1.04-0.65-1.65-2.48-2.08c-2.53-0.61-4.13-1.49-4.13-3.77c0-2.28,2.06-3.62,4.43-3.62
		C83.42,12.33,84.77,14.02,85.04,16.23z"/>
</g>
<g>
	<path class="st0" d="M15.45,30.24c0,1.48-0.88,2.32-2.01,2.46c-0.25,0.03-0.36,0.03-0.62,0.03h-1.66v-4.84h1.67
		c0.26,0,0.37,0,0.62,0.03C14.58,28.05,15.45,28.76,15.45,30.24z M14.43,30.26c0-0.96-0.46-1.5-1.18-1.59
		c-0.16-0.02-0.3-0.03-0.52-0.03h-0.59v3.32h0.58c0.21,0,0.36,0,0.51-0.02C13.95,31.85,14.43,31.25,14.43,30.26z"/>
	<path class="st0" d="M17.84,28.12c0,0.31-0.22,0.51-0.53,0.51c-0.32,0-0.53-0.2-0.53-0.51c0-0.3,0.22-0.51,0.53-0.51
		C17.62,27.61,17.84,27.82,17.84,28.12z M16.82,32.73V29h0.97v3.73H16.82z"/>
	<path class="st0" d="M23.02,31.8c0,0.23,0,0.52-0.01,0.72c-0.04,1.17-0.8,1.73-1.98,1.73c-1.09,0-1.71-0.46-1.79-1.28l-0.01-0.07
		h0.94l0.01,0.06c0.04,0.34,0.37,0.56,0.86,0.56c0.6,0,0.96-0.3,1-0.9c0.01-0.14,0.01-0.29,0.01-0.46v-0.09l-0.28,0.41
		c-0.21,0.16-0.55,0.26-0.93,0.26c-1.05,0-1.71-0.75-1.71-1.85c0-1.35,0.83-2.01,1.79-2.01c0.31,0,0.69,0.08,0.88,0.21l0.25,0.39V29
		h0.97V31.8z M22.05,30.83v-0.11c0-0.84-0.48-1.14-0.93-1.14c-0.56,0-0.98,0.39-0.98,1.24c0,0.76,0.36,1.25,0.94,1.25
		C21.61,32.07,22.05,31.74,22.05,30.83z"/>
	<path class="st0" d="M25.64,28.12c0,0.31-0.22,0.51-0.53,0.51c-0.32,0-0.53-0.2-0.53-0.51c0-0.3,0.22-0.51,0.53-0.51
		C25.42,27.61,25.64,27.82,25.64,28.12z M24.62,32.73V29h0.97v3.73H24.62z"/>
	<path class="st0" d="M28.34,31.39c0,0.13,0,0.23,0.01,0.33c0.03,0.37,0.16,0.45,0.7,0.41v0.63c-0.22,0.04-0.42,0.05-0.64,0.05
		c-0.72,0-0.98-0.24-1.02-0.76c-0.01-0.17-0.01-0.33-0.01-0.54v-1.84h-0.55v-0.64h0.55V28.1h0.97v0.92h0.77v0.64h-0.77V31.39z"/>
	<path class="st0" d="M32.52,32.18l-0.18,0.4c-0.26,0.18-0.58,0.25-0.93,0.25c-0.65,0-1.2-0.38-1.2-1.09c0-0.82,0.7-1.29,2.06-1.29
		h0.24v-0.08c0-0.11,0-0.22-0.01-0.35c-0.03-0.26-0.2-0.45-0.58-0.45c-0.39,0-0.6,0.22-0.62,0.63l-0.94,0.01
		c0.03-0.84,0.71-1.32,1.6-1.32c1.05,0,1.44,0.46,1.5,1.1c0.01,0.18,0.02,0.37,0.02,0.58v1.21c0,0.28,0.01,0.53,0.07,0.95h-0.95
		L32.52,32.18z M32.51,31.35v-0.3c-0.77-0.06-1.29,0.12-1.29,0.61c0,0.33,0.22,0.48,0.57,0.48C32.18,32.15,32.51,31.87,32.51,31.35z
		"/>
	<path class="st0" d="M36.01,31.51c0,0.15,0,0.25,0.01,0.34c0.02,0.19,0.11,0.25,0.44,0.23v0.67c-0.19,0.02-0.38,0.03-0.6,0.03
		c-0.48,0-0.78-0.17-0.8-0.66c-0.01-0.17-0.01-0.34-0.01-0.59v-3.96h0.97V31.51z"/>
	<path class="st0" d="M43.47,32.73h-3.5v-4.84h3.43v0.76h-2.46v1.28h2.28v0.76h-2.28v1.28h2.53V32.73z"/>
	<path class="st0" d="M46.91,32.73h-1.08L44.37,29h1.07l0.94,3l0.92-3h1.05L46.91,32.73z"/>
	<path class="st0" d="M50.51,28.12c0,0.31-0.22,0.51-0.53,0.51c-0.32,0-0.53-0.2-0.53-0.51c0-0.3,0.22-0.51,0.53-0.51
		C50.29,27.61,50.51,27.82,50.51,28.12z M49.49,32.73V29h0.97v3.73H49.49z"/>
	<path class="st0" d="M55.68,32.73h-0.97v-0.58l-0.28,0.41c-0.21,0.16-0.59,0.26-0.97,0.26c-1.05,0-1.66-0.79-1.66-1.9
		c0-1.35,0.83-2.04,1.79-2.04c0.31,0,0.69,0.08,0.88,0.21l0.25,0.39v-1.92h0.97V32.73z M54.72,30.9v-0.18
		c0-0.84-0.48-1.14-0.93-1.14c-0.56,0-0.98,0.43-0.98,1.29c0,0.77,0.36,1.28,0.94,1.28C54.28,32.15,54.72,31.82,54.72,30.9z"/>
	<path class="st0" d="M60.66,31.12h-2.65c0.06,0.79,0.41,1.03,0.86,1.03c0.41,0,0.72-0.23,0.78-0.63h0.97
		c-0.19,0.87-0.89,1.31-1.77,1.31c-1.03,0-1.82-0.64-1.82-1.95c0-1.14,0.75-1.98,1.9-1.98c1.14,0,1.75,0.87,1.75,1.89
		C60.67,30.88,60.67,30.99,60.66,31.12z M58.04,30.48h1.64c-0.06-0.59-0.33-0.91-0.79-0.91C58.44,29.58,58.12,29.87,58.04,30.48z"/>
	<path class="st0" d="M65.55,30.62v2.11h-0.97v-1.97c0-0.15,0-0.33-0.01-0.52c-0.03-0.39-0.25-0.66-0.72-0.66
		c-0.47,0-0.84,0.41-0.84,1.45v1.71h-0.97V29h0.97v0.6l0.29-0.44c0.27-0.19,0.54-0.26,0.9-0.26c0.79,0,1.25,0.39,1.33,1.05
		C65.54,30.13,65.55,30.32,65.55,30.62z"/>
	<path class="st0" d="M70.42,30.34h-0.95c-0.09-0.54-0.37-0.76-0.77-0.76c-0.49,0-0.84,0.4-0.84,1.25c0,0.93,0.35,1.32,0.83,1.32
		c0.38,0,0.66-0.24,0.76-0.71h0.97c-0.16,0.92-0.85,1.39-1.78,1.39c-1.02,0-1.78-0.65-1.78-1.94c0-1.28,0.84-1.99,1.87-1.99
		C69.73,28.9,70.35,29.51,70.42,30.34z"/>
	<path class="st0" d="M75.12,31.12h-2.65c0.06,0.79,0.41,1.03,0.86,1.03c0.41,0,0.72-0.23,0.78-0.63h0.97
		c-0.19,0.87-0.89,1.31-1.77,1.31c-1.03,0-1.82-0.64-1.82-1.95c0-1.14,0.75-1.98,1.9-1.98c1.14,0,1.75,0.87,1.75,1.89
		C75.13,30.88,75.13,30.99,75.12,31.12z M72.49,30.48h1.64c-0.06-0.59-0.33-0.91-0.79-0.91C72.89,29.58,72.58,29.87,72.49,30.48z"/>
</g>
<g>
	<path class="st0" d="M39.16,40.66H38.1c-0.12-0.33-0.19-0.62-0.24-1.08c-0.06-0.52-0.26-0.83-0.65-0.86
		c-0.13-0.01-0.25-0.01-0.38-0.01h-0.56v1.95H35.3v-4.84h1.77c0.28,0,0.46,0.01,0.7,0.04c0.7,0.08,1.27,0.45,1.27,1.28
		c0,0.62-0.37,1.02-0.95,1.18c0.48,0.18,0.66,0.58,0.72,1.12C38.87,40.03,38.96,40.39,39.16,40.66z M36.93,37.99
		c0.17,0,0.29,0,0.39-0.01c0.39-0.04,0.69-0.22,0.69-0.69c0-0.47-0.26-0.64-0.64-0.69c-0.11-0.01-0.23-0.02-0.41-0.02h-0.71v1.41
		H36.93z"/>
	<path class="st0" d="M45.81,40.66h-0.97v-2.24c0-0.5,0-1.15,0.01-1.66c-0.12,0.5-0.29,1.15-0.45,1.65l-0.68,2.25h-1.05l-0.69-2.25
		c-0.15-0.49-0.32-1.14-0.44-1.64c0.01,0.51,0.01,1.14,0.01,1.65v2.24h-0.97v-4.84h1.53l1.1,3.95l1.09-3.95h1.5V40.66z"/>
	<path class="st0" d="M50.98,37.24h-0.99c-0.06-0.49-0.33-0.8-0.83-0.8c-0.39,0-0.68,0.18-0.68,0.58c0,0.41,0.26,0.61,1.03,0.79
		c1.07,0.25,1.54,0.74,1.54,1.52c0,0.91-0.84,1.43-1.79,1.43c-1.16,0-1.92-0.51-2.01-1.53h0.99c0.1,0.53,0.51,0.81,1,0.81
		c0.44,0,0.79-0.24,0.79-0.61c0-0.41-0.25-0.65-0.97-0.81c-0.99-0.24-1.61-0.58-1.61-1.47s0.81-1.42,1.73-1.42
		C50.35,35.72,50.88,36.38,50.98,37.24z"/>
</g>
<polygon id="XMLID_3_" class="st1" points="74.04,7.15 72.08,7.47 73.25,9.07 71.43,8.28 71.55,10.27 70.44,8.61 69.47,10.35 
	69.43,8.36 67.68,9.3 68.72,7.6 66.74,7.44 68.53,6.58 66.95,5.37 68.93,5.62 68.25,3.75 69.78,5.02 70.22,3.08 70.82,4.98 
	72.24,3.59 71.72,5.51 73.66,5.1 72.19,6.43 "/>
</svg>
