<?xml version="1.0" encoding="utf-8"?>
<!-- Generator: Adobe Illustrator 19.0.0, SVG Export Plug-In . SVG Version: 6.00 Build 0)  -->
<svg version="1.1" xmlns="http://www.w3.org/2000/svg" xmlns:xlink="http://www.w3.org/1999/xlink" x="0px" y="0px"
	 viewBox="0 0 960 560" style="enable-background:new 0 0 960 560;" xml:space="preserve">
<style type="text/css">
	.st0{fill:none;stroke:#0000FF;stroke-miterlimit:10;}
</style>
<g id="Layer_1">
	<g id="XMLID_53_">
		<path id="XMLID_54_" d="M113.3,53.4c0,3.2-2.2,5.1-4.8,5.4c-0.9,0.1-1.5,0.1-2.6,0.1h-2.6v6.6h-3.5V47.9h6.1c1,0,1.7,0,2.6,0.1
			C111.2,48.4,113.3,50.2,113.3,53.4z M109.5,53.4c0-1.7-0.9-2.5-2.1-2.6c-0.4-0.1-0.9-0.1-1.6-0.1h-2.5v5.4h2.5
			c0.6,0,1.2,0,1.6-0.1C108.7,55.9,109.5,55.1,109.5,53.4z"/>
		<path id="XMLID_57_" d="M134.8,56.7c0,5.5-3.3,9.2-8.7,9.2c-5.4,0-8.7-3.7-8.7-9.2c0-5.5,3.3-9.2,8.7-9.2
			C131.5,47.6,134.8,51.2,134.8,56.7z M131.1,56.7c0-4.1-1.9-6.5-5-6.5c-3.1,0-5,2.4-5,6.5c0,4.1,1.9,6.5,5,6.5
			C129.2,63.3,131.1,60.9,131.1,56.7z"/>
		<path id="XMLID_60_" d="M153.2,65.6h-12.7V47.9h3.5v14.7h9.2V65.6z"/>
		<path id="XMLID_62_" d="M162.1,60.2l-1.8,5.3h-3.8l6.4-17.6h4.4l6.2,17.6h-3.8l-1.7-5.3H162.1z M163,57.5h4.1l-2-6.5L163,57.5z"/>
		<path id="XMLID_65_" d="M192.3,65.6h-3.9c-0.4-1.2-0.7-2.3-0.9-3.9c-0.2-1.9-0.9-3-2.4-3.1c-0.5,0-0.9,0-1.4,0h-2v7.1h-3.5V47.9
			h6.4c1,0,1.7,0,2.6,0.1c2.6,0.3,4.6,1.6,4.6,4.7c0,2.3-1.4,3.7-3.5,4.3c1.7,0.7,2.4,2.1,2.6,4.1C191.3,63.3,191.6,64.6,192.3,65.6
			z M184.2,55.8c0.6,0,1,0,1.4,0c1.4-0.1,2.5-0.8,2.5-2.5s-0.9-2.3-2.3-2.5c-0.4-0.1-0.8-0.1-1.5-0.1h-2.6v5.1H184.2z"/>
		<path id="XMLID_68_" d="M197.5,65.6V47.9h3.5v17.6H197.5z"/>
		<path id="XMLID_70_" d="M219.9,53.1h-3.6c-0.2-1.8-1.2-2.9-3-2.9c-1.4,0-2.5,0.7-2.5,2.1c0,1.5,0.9,2.2,3.8,2.9
			c3.9,0.9,5.6,2.7,5.6,5.5c0,3.3-3,5.2-6.5,5.2c-4.2,0-7-1.9-7.3-5.6h3.6c0.4,1.9,1.9,2.9,3.7,2.9c1.6,0,2.9-0.9,2.9-2.2
			c0-1.5-0.9-2.4-3.5-3c-3.6-0.9-5.9-2.1-5.9-5.4c0-3.2,2.9-5.2,6.3-5.2C217.6,47.6,219.6,50,219.9,53.1z"/>
	</g>
	<g id="XMLID_13_">
		<path id="XMLID_14_" d="M120.8,73.1c0,2.1-1.3,3.3-2.9,3.5c-0.4,0-0.5,0-0.9,0h-2.4v-6.9h2.4c0.4,0,0.5,0,0.9,0
			C119.6,69.9,120.8,71,120.8,73.1z M119.3,73.1c0-1.4-0.7-2.1-1.7-2.3c-0.2,0-0.4,0-0.7,0h-0.8v4.7h0.8c0.3,0,0.5,0,0.7,0
			C118.7,75.4,119.3,74.5,119.3,73.1z"/>
		<path id="XMLID_17_" d="M124.2,70c0,0.4-0.3,0.7-0.8,0.7s-0.8-0.3-0.8-0.7c0-0.4,0.3-0.7,0.8-0.7S124.2,69.6,124.2,70z
			 M122.7,76.6v-5.3h1.4v5.3H122.7z"/>
		<path id="XMLID_20_" d="M131.6,75.3c0,0.3,0,0.7,0,1c-0.1,1.7-1.1,2.5-2.8,2.5c-1.6,0-2.4-0.6-2.5-1.8l0-0.1h1.3l0,0.1
			c0.1,0.5,0.5,0.8,1.2,0.8c0.8,0,1.4-0.4,1.4-1.3c0-0.2,0-0.4,0-0.6v-0.1l-0.4,0.6c-0.3,0.2-0.8,0.4-1.3,0.4
			c-1.5,0-2.4-1.1-2.4-2.6c0-1.9,1.2-2.9,2.5-2.9c0.4,0,1,0.1,1.2,0.3l0.3,0.5v-0.7h1.4V75.3z M130.2,73.9v-0.1
			c0-1.2-0.7-1.6-1.3-1.6c-0.8,0-1.4,0.5-1.4,1.8c0,1.1,0.5,1.8,1.3,1.8C129.6,75.7,130.2,75.2,130.2,73.9z"/>
		<path id="XMLID_23_" d="M135.3,70c0,0.4-0.3,0.7-0.8,0.7s-0.8-0.3-0.8-0.7c0-0.4,0.3-0.7,0.8-0.7S135.3,69.6,135.3,70z
			 M133.9,76.6v-5.3h1.4v5.3H133.9z"/>
		<path id="XMLID_26_" d="M139.2,74.7c0,0.2,0,0.3,0,0.5c0,0.5,0.2,0.6,1,0.6v0.9c-0.3,0-0.6,0.1-0.9,0.1c-1,0-1.4-0.3-1.5-1.1
			c0-0.2,0-0.5,0-0.8v-2.6H137v-0.9h0.8V70h1.4v1.3h1.1v0.9h-1.1V74.7z"/>
		<path id="XMLID_28_" d="M145.1,75.8l-0.3,0.6c-0.4,0.3-0.8,0.4-1.3,0.4c-0.9,0-1.7-0.5-1.7-1.5c0-1.2,1-1.8,2.9-1.8h0.3v-0.1
			c0-0.2,0-0.3,0-0.5c0-0.4-0.3-0.6-0.8-0.6c-0.5,0-0.8,0.3-0.9,0.9l-1.3,0c0-1.2,1-1.9,2.3-1.9c1.5,0,2,0.6,2.1,1.6
			c0,0.2,0,0.5,0,0.8v1.7c0,0.4,0,0.8,0.1,1.3h-1.3L145.1,75.8z M145.1,74.7v-0.4c-1.1-0.1-1.8,0.2-1.8,0.9c0,0.5,0.3,0.7,0.8,0.7
			C144.6,75.8,145.1,75.4,145.1,74.7z"/>
		<path id="XMLID_31_" d="M150.1,74.9c0,0.2,0,0.4,0,0.5c0,0.3,0.1,0.4,0.6,0.3v0.9c-0.3,0-0.5,0-0.8,0c-0.7,0-1.1-0.2-1.1-0.9
			c0-0.2,0-0.5,0-0.8v-5.6h1.4V74.9z"/>
		<path id="XMLID_33_" d="M160.7,76.6h-5v-6.9h4.9v1.1h-3.5v1.8h3.2v1.1h-3.2v1.8h3.6V76.6z"/>
		<path id="XMLID_35_" d="M165.6,76.6h-1.5l-2.1-5.3h1.5l1.3,4.3l1.3-4.3h1.5L165.6,76.6z"/>
		<path id="XMLID_37_" d="M170.7,70c0,0.4-0.3,0.7-0.8,0.7s-0.8-0.3-0.8-0.7c0-0.4,0.3-0.7,0.8-0.7S170.7,69.6,170.7,70z
			 M169.3,76.6v-5.3h1.4v5.3H169.3z"/>
		<path id="XMLID_40_" d="M178.1,76.6h-1.4v-0.8l-0.4,0.6c-0.3,0.2-0.8,0.4-1.4,0.4c-1.5,0-2.4-1.1-2.4-2.7c0-1.9,1.2-2.9,2.5-2.9
			c0.4,0,1,0.1,1.2,0.3l0.3,0.5v-2.7h1.4V76.6z M176.7,74v-0.3c0-1.2-0.7-1.6-1.3-1.6c-0.8,0-1.4,0.6-1.4,1.8c0,1.1,0.5,1.8,1.3,1.8
			C176.1,75.8,176.7,75.3,176.7,74z"/>
		<path id="XMLID_43_" d="M185.2,74.3h-3.8c0.1,1.1,0.6,1.5,1.2,1.5c0.6,0,1-0.3,1.1-0.9h1.4c-0.3,1.2-1.3,1.9-2.5,1.9
			c-1.5,0-2.6-0.9-2.6-2.8c0-1.6,1.1-2.8,2.7-2.8c1.6,0,2.5,1.2,2.5,2.7C185.2,74,185.2,74.1,185.2,74.3z M181.5,73.4h2.3
			c-0.1-0.8-0.5-1.3-1.1-1.3C182,72.1,181.6,72.5,181.5,73.4z"/>
		<path id="XMLID_46_" d="M192.2,73.6v3h-1.4v-2.8c0-0.2,0-0.5,0-0.7c0-0.6-0.3-0.9-1-0.9c-0.7,0-1.2,0.6-1.2,2.1v2.4h-1.4v-5.3h1.4
			v0.9l0.4-0.6c0.4-0.3,0.8-0.4,1.3-0.4c1.1,0,1.8,0.6,1.9,1.5C192.2,72.9,192.2,73.2,192.2,73.6z"/>
		<path id="XMLID_48_" d="M199.1,73.2h-1.4c-0.1-0.8-0.5-1.1-1.1-1.1c-0.7,0-1.2,0.6-1.2,1.8c0,1.3,0.5,1.9,1.2,1.9
			c0.5,0,0.9-0.3,1.1-1h1.4c-0.2,1.3-1.2,2-2.5,2c-1.4,0-2.5-0.9-2.5-2.8c0-1.8,1.2-2.8,2.7-2.8C198.1,71.2,199,72,199.1,73.2z"/>
		<path id="XMLID_50_" d="M205.8,74.3H202c0.1,1.1,0.6,1.5,1.2,1.5c0.6,0,1-0.3,1.1-0.9h1.4c-0.3,1.2-1.3,1.9-2.5,1.9
			c-1.5,0-2.6-0.9-2.6-2.8c0-1.6,1.1-2.8,2.7-2.8c1.6,0,2.5,1.2,2.5,2.7C205.8,74,205.8,74.1,205.8,74.3z M202.1,73.4h2.3
			c-0.1-0.8-0.5-1.3-1.1-1.3C202.6,72.1,202.2,72.5,202.1,73.4z"/>
	</g>
	<g id="XMLID_5_">
		<path id="XMLID_6_" d="M154.6,87.9h-1.5c-0.2-0.5-0.3-0.9-0.3-1.5c-0.1-0.7-0.4-1.2-0.9-1.2c-0.2,0-0.4,0-0.5,0h-0.8v2.8h-1.4V81
			h2.5c0.4,0,0.7,0,1,0c1,0.1,1.8,0.6,1.8,1.8c0,0.9-0.5,1.4-1.3,1.7c0.7,0.3,0.9,0.8,1,1.6C154.2,87,154.3,87.5,154.6,87.9z
			 M151.4,84.1c0.2,0,0.4,0,0.6,0c0.5,0,1-0.3,1-1c0-0.7-0.4-0.9-0.9-1c-0.2,0-0.3,0-0.6,0h-1v2H151.4z"/>
		<path id="XMLID_9_" d="M164,87.9h-1.4v-3.2c0-0.7,0-1.6,0-2.4c-0.2,0.7-0.4,1.6-0.6,2.3l-1,3.2h-1.5l-1-3.2
			c-0.2-0.7-0.5-1.6-0.6-2.3c0,0.7,0,1.6,0,2.3v3.2h-1.4V81h2.2l1.6,5.6l1.6-5.6h2.1V87.9z"/>
		<path id="XMLID_11_" d="M171.4,83H170c-0.1-0.7-0.5-1.1-1.2-1.1c-0.5,0-1,0.3-1,0.8c0,0.6,0.4,0.9,1.5,1.1c1.5,0.3,2.2,1,2.2,2.2
			c0,1.3-1.2,2-2.5,2c-1.6,0-2.7-0.7-2.9-2.2h1.4c0.1,0.8,0.7,1.1,1.4,1.1c0.6,0,1.1-0.3,1.1-0.9c0-0.6-0.4-0.9-1.4-1.2
			c-1.4-0.3-2.3-0.8-2.3-2.1c0-1.3,1.1-2,2.5-2C170.5,80.9,171.3,81.8,171.4,83z"/>
	</g>
	<polygon id="XMLID_3_" class="st0" points="204.3,40.2 201.5,40.6 203.2,42.9 200.6,41.8 200.7,44.6 199.2,42.3 197.8,44.7 
		197.7,41.9 195.2,43.2 196.7,40.8 193.9,40.6 196.4,39.4 194.2,37.6 197,38 196,35.3 198.2,37.1 198.8,34.4 199.7,37.1 201.7,35.1 
		201,37.8 203.7,37.2 201.6,39.1 	"/>
</g>
<g id="Layer_2">
</g>
</svg>
