<?xml version="1.0" encoding="UTF-8" standalone="no"?>
<!DOCTYPE svg PUBLIC "-//W3C//DTD SVG 1.1//EN" "http://www.w3.org/Graphics/SVG/1.1/DTD/svg11.dtd">
<svg width="100%" height="100%" viewBox="0 0 121 37" version="1.1" xmlns="http://www.w3.org/2000/svg" xmlns:xlink="http://www.w3.org/1999/xlink" xml:space="preserve" xmlns:serif="http://www.serif.com/" style="fill-rule:evenodd;clip-rule:evenodd;stroke-miterlimit:10;">
    <g transform="matrix(1,0,0,1,-183.061,-123.716)">
        <g id="XMLID_53_" transform="matrix(1,0,0,1,83.2614,94.3405)">
            <path id="XMLID_54_" d="M113.3,53.4C113.3,56.6 111.1,58.5 108.5,58.8C107.6,58.9 107,58.9 105.9,58.9L103.3,58.9L103.3,65.5L99.8,65.5L99.8,47.9L105.9,47.9C106.9,47.9 107.6,47.9 108.5,48C111.2,48.4 113.3,50.2 113.3,53.4ZM109.5,53.4C109.5,51.7 108.6,50.9 107.4,50.8C107,50.7 106.5,50.7 105.8,50.7L103.3,50.7L103.3,56.1L105.8,56.1C106.4,56.1 107,56.1 107.4,56C108.7,55.9 109.5,55.1 109.5,53.4Z" style="fill:white;fill-rule:nonzero;"/>
            <path id="XMLID_57_" d="M134.8,56.7C134.8,62.2 131.5,65.9 126.1,65.9C120.7,65.9 117.4,62.2 117.4,56.7C117.4,51.2 120.7,47.5 126.1,47.5C131.5,47.6 134.8,51.2 134.8,56.7ZM131.1,56.7C131.1,52.6 129.2,50.2 126.1,50.2C123,50.2 121.1,52.6 121.1,56.7C121.1,60.8 123,63.2 126.1,63.2C129.2,63.3 131.1,60.9 131.1,56.7Z" style="fill:white;fill-rule:nonzero;"/>
            <path id="XMLID_60_" d="M153.2,65.6L140.5,65.6L140.5,47.9L144,47.9L144,62.6L153.2,62.6L153.2,65.6Z" style="fill:white;fill-rule:nonzero;"/>
            <path id="XMLID_62_" d="M162.1,60.2L160.3,65.5L156.5,65.5L162.9,47.9L167.3,47.9L173.5,65.5L169.7,65.5L168,60.2L162.1,60.2ZM163,57.5L167.1,57.5L165.1,51L163,57.5Z" style="fill:white;fill-rule:nonzero;"/>
            <path id="XMLID_65_" d="M192.3,65.6L188.4,65.6C188,64.4 187.7,63.3 187.5,61.7C187.3,59.8 186.6,58.7 185.1,58.6L181.7,58.6L181.7,65.7L178.2,65.7L178.2,47.9L184.6,47.9C185.6,47.9 186.3,47.9 187.2,48C189.8,48.3 191.8,49.6 191.8,52.7C191.8,55 190.4,56.4 188.3,57C190,57.7 190.7,59.1 190.9,61.1C191.3,63.3 191.6,64.6 192.3,65.6ZM181.7,55.8L185.6,55.8C187,55.7 188.1,55 188.1,53.3C188.1,51.6 187.2,51 185.8,50.8C185.4,50.7 185,50.7 184.3,50.7L181.7,50.7L181.7,55.8Z" style="fill:white;fill-rule:nonzero;"/>
            <path id="XMLID_68_" d="M197.5,65.6L197.5,47.9L201,47.9L201,65.5L197.5,65.5L197.5,65.6Z" style="fill:white;fill-rule:nonzero;"/>
            <path id="XMLID_70_" d="M219.9,53.1L216.3,53.1C216.1,51.3 215.1,50.2 213.3,50.2C211.9,50.2 210.8,50.9 210.8,52.3C210.8,53.8 211.7,54.5 214.6,55.2C218.5,56.1 220.2,57.9 220.2,60.7C220.2,64 217.2,65.9 213.7,65.9C209.5,65.9 206.7,64 206.4,60.3L210,60.3C210.4,62.2 211.9,63.2 213.7,63.2C215.3,63.2 216.6,62.3 216.6,61C216.6,59.5 215.7,58.6 213.1,58C209.5,57.1 207.2,55.9 207.2,52.6C207.2,49.4 210.1,47.4 213.5,47.4C217.6,47.6 219.6,50 219.9,53.1Z" style="fill:white;fill-rule:nonzero;"/>
        </g>
        <g id="XMLID_3_" transform="matrix(1,0,0,1,83.2614,94.3405)">
            <path d="M204.3,40.2L201.5,40.6L203.2,42.9L200.6,41.8L200.7,44.6L199.2,42.3L197.8,44.7L197.7,41.9L195.2,43.2L196.7,40.8L193.9,40.6L196.4,39.4L194.2,37.6L197,38L196,35.3L198.2,37.1L198.8,34.4L199.7,37.1L201.7,35.1L201,37.8L203.7,37.2L201.6,39.1L204.3,40.2Z" style="fill:none;fill-rule:nonzero;stroke:rgb(0,0,255);stroke-width:1px;"/>
        </g>
    </g>
</svg>
