<?xml version="1.0" encoding="UTF-8" standalone="no"?>
<!DOCTYPE svg PUBLIC "-//W3C//DTD SVG 1.1//EN" "http://www.w3.org/Graphics/SVG/1.1/DTD/svg11.dtd">
<svg width="100%" height="100%" viewBox="0 0 121 59" version="1.1" xmlns="http://www.w3.org/2000/svg" xmlns:xlink="http://www.w3.org/1999/xlink" xml:space="preserve" xmlns:serif="http://www.serif.com/" style="fill-rule:evenodd;clip-rule:evenodd;stroke-miterlimit:10;">
    <g transform="matrix(1,0,0,1,-183.061,-123.716)">
        <g id="XMLID_53_" transform="matrix(1,0,0,1,83.2614,94.3405)">
            <path id="XMLID_54_" d="M113.3,53.4C113.3,56.6 111.1,58.5 108.5,58.8C107.6,58.9 107,58.9 105.9,58.9L103.3,58.9L103.3,65.5L99.8,65.5L99.8,47.9L105.9,47.9C106.9,47.9 107.6,47.9 108.5,48C111.2,48.4 113.3,50.2 113.3,53.4ZM109.5,53.4C109.5,51.7 108.6,50.9 107.4,50.8C107,50.7 106.5,50.7 105.8,50.7L103.3,50.7L103.3,56.1L105.8,56.1C106.4,56.1 107,56.1 107.4,56C108.7,55.9 109.5,55.1 109.5,53.4Z" style="fill:white;fill-rule:nonzero;"/>
            <path id="XMLID_57_" d="M134.8,56.7C134.8,62.2 131.5,65.9 126.1,65.9C120.7,65.9 117.4,62.2 117.4,56.7C117.4,51.2 120.7,47.5 126.1,47.5C131.5,47.6 134.8,51.2 134.8,56.7ZM131.1,56.7C131.1,52.6 129.2,50.2 126.1,50.2C123,50.2 121.1,52.6 121.1,56.7C121.1,60.8 123,63.2 126.1,63.2C129.2,63.3 131.1,60.9 131.1,56.7Z" style="fill:white;fill-rule:nonzero;"/>
            <path id="XMLID_60_" d="M153.2,65.6L140.5,65.6L140.5,47.9L144,47.9L144,62.6L153.2,62.6L153.2,65.6Z" style="fill:white;fill-rule:nonzero;"/>
            <path id="XMLID_62_" d="M162.1,60.2L160.3,65.5L156.5,65.5L162.9,47.9L167.3,47.9L173.5,65.5L169.7,65.5L168,60.2L162.1,60.2ZM163,57.5L167.1,57.5L165.1,51L163,57.5Z" style="fill:white;fill-rule:nonzero;"/>
            <path id="XMLID_65_" d="M192.3,65.6L188.4,65.6C188,64.4 187.7,63.3 187.5,61.7C187.3,59.8 186.6,58.7 185.1,58.6L181.7,58.6L181.7,65.7L178.2,65.7L178.2,47.9L184.6,47.9C185.6,47.9 186.3,47.9 187.2,48C189.8,48.3 191.8,49.6 191.8,52.7C191.8,55 190.4,56.4 188.3,57C190,57.7 190.7,59.1 190.9,61.1C191.3,63.3 191.6,64.6 192.3,65.6ZM181.7,55.8L185.6,55.8C187,55.7 188.1,55 188.1,53.3C188.1,51.6 187.2,51 185.8,50.8C185.4,50.7 185,50.7 184.3,50.7L181.7,50.7L181.7,55.8Z" style="fill:white;fill-rule:nonzero;"/>
            <path id="XMLID_68_" d="M197.5,65.6L197.5,47.9L201,47.9L201,65.5L197.5,65.5L197.5,65.6Z" style="fill:white;fill-rule:nonzero;"/>
            <path id="XMLID_70_" d="M219.9,53.1L216.3,53.1C216.1,51.3 215.1,50.2 213.3,50.2C211.9,50.2 210.8,50.9 210.8,52.3C210.8,53.8 211.7,54.5 214.6,55.2C218.5,56.1 220.2,57.9 220.2,60.7C220.2,64 217.2,65.9 213.7,65.9C209.5,65.9 206.7,64 206.4,60.3L210,60.3C210.4,62.2 211.9,63.2 213.7,63.2C215.3,63.2 216.6,62.3 216.6,61C216.6,59.5 215.7,58.6 213.1,58C209.5,57.1 207.2,55.9 207.2,52.6C207.2,49.4 210.1,47.4 213.5,47.4C217.6,47.6 219.6,50 219.9,53.1Z" style="fill:white;fill-rule:nonzero;"/>
        </g>
        <g id="XMLID_13_" transform="matrix(1,0,0,1,83.2614,94.3405)">
            <path id="XMLID_14_" d="M120.8,73.1C120.8,75.2 119.5,76.4 117.9,76.6L114.6,76.6L114.6,69.7L117.9,69.7C119.6,69.9 120.8,71 120.8,73.1ZM119.3,73.1C119.3,71.7 118.6,71 117.6,70.8L116.1,70.8L116.1,75.5L117.6,75.5C118.7,75.4 119.3,74.5 119.3,73.1Z" style="fill:white;fill-rule:nonzero;"/>
            <path id="XMLID_17_" d="M124.2,70C124.2,70.4 123.9,70.7 123.4,70.7C122.9,70.7 122.6,70.4 122.6,70C122.6,69.6 122.9,69.3 123.4,69.3C123.9,69.3 124.2,69.6 124.2,70ZM122.7,76.6L122.7,71.3L124.1,71.3L124.1,76.6L122.7,76.6Z" style="fill:white;fill-rule:nonzero;"/>
            <path id="XMLID_20_" d="M131.6,75.3L131.6,76.3C131.5,78 130.5,78.8 128.8,78.8C127.2,78.8 126.4,78.2 126.3,77L126.3,76.9L127.6,76.9L127.6,77C127.7,77.5 128.1,77.8 128.8,77.8C129.6,77.8 130.2,77.4 130.2,76.5L130.2,75.8L129.8,76.4C129.5,76.6 129,76.8 128.5,76.8C127,76.8 126.1,75.7 126.1,74.2C126.1,72.3 127.3,71.3 128.6,71.3C129,71.3 129.6,71.4 129.8,71.6L130.1,72.1L130.1,71.4L131.5,71.4L131.5,75.3L131.6,75.3ZM130.2,73.9L130.2,73.8C130.2,72.6 129.5,72.2 128.9,72.2C128.1,72.2 127.5,72.7 127.5,74C127.5,75.1 128,75.8 128.8,75.8C129.6,75.7 130.2,75.2 130.2,73.9Z" style="fill:white;fill-rule:nonzero;"/>
            <path id="XMLID_23_" d="M135.3,70C135.3,70.4 135,70.7 134.5,70.7C134,70.7 133.7,70.4 133.7,70C133.7,69.6 134,69.3 134.5,69.3C135,69.3 135.3,69.6 135.3,70ZM133.9,76.6L133.9,71.3L135.3,71.3L135.3,76.6L133.9,76.6Z" style="fill:white;fill-rule:nonzero;"/>
            <path id="XMLID_26_" d="M139.2,72.2L139.2,75.2C139.2,75.7 139.4,75.8 140.2,75.8L140.2,76.7C139.9,76.7 139.6,76.8 139.3,76.8C138.3,76.8 137.9,76.5 137.8,75.7L137.8,72.3L137,72.3L137,71.4L137.8,71.4L137.8,70L139.2,70L139.2,71.3L140.3,71.3L140.3,72.2L139.2,72.2Z" style="fill:white;fill-rule:nonzero;"/>
            <path id="XMLID_28_" d="M145.1,75.8L144.8,76.4C144.4,76.7 144,76.8 143.5,76.8C142.6,76.8 141.8,76.3 141.8,75.3C141.8,74.1 142.8,73.5 144.7,73.5L145,73.5L145,72.9C145,72.5 144.7,72.3 144.2,72.3C143.7,72.3 143.4,72.6 143.3,73.2L142,73.2C142,72 143,71.3 144.3,71.3C145.8,71.3 146.3,71.9 146.4,72.9L146.4,75.4C146.4,75.8 146.4,76.2 146.5,76.7L145.2,76.7L145.1,75.8ZM145.1,74.7L145.1,74.3C144,74.2 143.3,74.5 143.3,75.2C143.3,75.7 143.6,75.9 144.1,75.9C144.6,75.8 145.1,75.4 145.1,74.7Z" style="fill:white;fill-rule:nonzero;"/>
            <path id="XMLID_31_" d="M150.1,74.9L150.1,75.4C150.1,75.7 150.2,75.8 150.7,75.7L150.7,76.6L149.9,76.6C149.2,76.6 148.8,76.4 148.8,75.7L148.8,69.3L150.2,69.3L150.2,74.9L150.1,74.9Z" style="fill:white;fill-rule:nonzero;"/>
            <path id="XMLID_33_" d="M160.7,76.6L155.7,76.6L155.7,69.7L160.6,69.7L160.6,70.8L157.1,70.8L157.1,72.6L160.3,72.6L160.3,73.7L157.1,73.7L157.1,75.5L160.7,75.5L160.7,76.6Z" style="fill:white;fill-rule:nonzero;"/>
            <path id="XMLID_35_" d="M165.6,76.6L164.1,76.6L162,71.3L163.5,71.3L164.8,75.6L166.1,71.3L167.6,71.3L165.6,76.6Z" style="fill:white;fill-rule:nonzero;"/>
            <path id="XMLID_37_" d="M170.7,70C170.7,70.4 170.4,70.7 169.9,70.7C169.4,70.7 169.1,70.4 169.1,70C169.1,69.6 169.4,69.3 169.9,69.3C170.4,69.3 170.7,69.6 170.7,70ZM169.3,76.6L169.3,71.3L170.7,71.3L170.7,76.6L169.3,76.6Z" style="fill:white;fill-rule:nonzero;"/>
            <path id="XMLID_40_" d="M178.1,76.6L176.7,76.6L176.7,75.8L176.3,76.4C176,76.6 175.5,76.8 174.9,76.8C173.4,76.8 172.5,75.7 172.5,74.1C172.5,72.2 173.7,71.2 175,71.2C175.4,71.2 176,71.3 176.2,71.5L176.5,72L176.5,69.3L177.9,69.3L177.9,76.6L178.1,76.6ZM176.7,74L176.7,73.7C176.7,72.5 176,72.1 175.4,72.1C174.6,72.1 174,72.7 174,73.9C174,75 174.5,75.7 175.3,75.7C176.1,75.8 176.7,75.3 176.7,74Z" style="fill:white;fill-rule:nonzero;"/>
            <path id="XMLID_43_" d="M185.2,74.3L181.4,74.3C181.5,75.4 182,75.8 182.6,75.8C183.2,75.8 183.6,75.5 183.7,74.9L185.1,74.9C184.8,76.1 183.8,76.8 182.6,76.8C181.1,76.8 180,75.9 180,74C180,72.4 181.1,71.2 182.7,71.2C184.3,71.2 185.2,72.4 185.2,73.9L185.2,74.3ZM181.5,73.4L183.8,73.4C183.7,72.6 183.3,72.1 182.7,72.1C182,72.1 181.6,72.5 181.5,73.4Z" style="fill:white;fill-rule:nonzero;"/>
            <path id="XMLID_46_" d="M192.2,72.8L192.2,76.6L190.8,76.6L190.8,73.1C190.8,72.5 190.5,72.2 189.8,72.2C189.1,72.2 188.6,72.8 188.6,74.3L188.6,76.7L187.2,76.7L187.2,71.4L188.6,71.4L188.6,72.3L189,71.7C189.4,71.4 189.8,71.3 190.3,71.3C191.4,71.3 192.1,71.9 192.2,72.8Z" style="fill:white;fill-rule:nonzero;"/>
            <path id="XMLID_48_" d="M199.1,73.2L197.7,73.2C197.6,72.4 197.2,72.1 196.6,72.1C195.9,72.1 195.4,72.7 195.4,73.9C195.4,75.2 195.9,75.8 196.6,75.8C197.1,75.8 197.5,75.5 197.7,74.8L199.1,74.8C198.9,76.1 197.9,76.8 196.6,76.8C195.2,76.8 194.1,75.9 194.1,74C194.1,72.2 195.3,71.2 196.8,71.2C198.1,71.2 199,72 199.1,73.2Z" style="fill:white;fill-rule:nonzero;"/>
            <path id="XMLID_50_" d="M205.8,74.3L202,74.3C202.1,75.4 202.6,75.8 203.2,75.8C203.8,75.8 204.2,75.5 204.3,74.9L205.7,74.9C205.4,76.1 204.4,76.8 203.2,76.8C201.7,76.8 200.6,75.9 200.6,74C200.6,72.4 201.7,71.2 203.3,71.2C204.9,71.2 205.8,72.4 205.8,73.9L205.8,74.3ZM202.1,73.4L204.4,73.4C204.3,72.6 203.9,72.1 203.3,72.1C202.6,72.1 202.2,72.5 202.1,73.4Z" style="fill:white;fill-rule:nonzero;"/>
        </g>
        <g id="XMLID_5_" transform="matrix(1,0,0,1,83.2614,94.3405)">
            <path id="XMLID_6_" d="M154.6,87.9L153.1,87.9C152.9,87.4 152.8,87 152.8,86.4C152.7,85.7 152.4,85.2 151.9,85.2L150.6,85.2L150.6,88L149.2,88L149.2,81L152.7,81C153.7,81.1 154.5,81.6 154.5,82.8C154.5,83.7 154,84.2 153.2,84.5C153.9,84.8 154.1,85.3 154.2,86.1C154.2,87 154.3,87.5 154.6,87.9ZM150.5,84.1L152,84.1C152.5,84.1 153,83.8 153,83.1C153,82.4 152.6,82.2 152.1,82.1L150.5,82.1L150.5,84.1Z" style="fill:white;fill-rule:nonzero;"/>
            <path id="XMLID_9_" d="M164,87.9L162.6,87.9L162.6,82.3C162.4,83 162.2,83.9 162,84.6L161,87.8L159.5,87.8L158.5,84.6C158.3,83.9 158,83 157.9,82.3L157.9,87.8L156.5,87.8L156.5,81L158.7,81L160.3,86.6L161.9,81L164,81L164,87.9Z" style="fill:white;fill-rule:nonzero;"/>
            <path id="XMLID_11_" d="M171.4,83L170,83C169.9,82.3 169.5,81.9 168.8,81.9C168.3,81.9 167.8,82.2 167.8,82.7C167.8,83.3 168.2,83.6 169.3,83.8C170.8,84.1 171.5,84.8 171.5,86C171.5,87.3 170.3,88 169,88C167.4,88 166.3,87.3 166.1,85.8L167.5,85.8C167.6,86.6 168.2,86.9 168.9,86.9C169.5,86.9 170,86.6 170,86C170,85.4 169.6,85.1 168.6,84.8C167.2,84.5 166.3,84 166.3,82.7C166.3,81.4 167.4,80.7 168.8,80.7C170.5,80.9 171.3,81.8 171.4,83Z" style="fill:white;fill-rule:nonzero;"/>
        </g>
        <g id="XMLID_3_" transform="matrix(1,0,0,1,83.2614,94.3405)">
            <path d="M204.3,40.2L201.5,40.6L203.2,42.9L200.6,41.8L200.7,44.6L199.2,42.3L197.8,44.7L197.7,41.9L195.2,43.2L196.7,40.8L193.9,40.6L196.4,39.4L194.2,37.6L197,38L196,35.3L198.2,37.1L198.8,34.4L199.7,37.1L201.7,35.1L201,37.8L203.7,37.2L201.6,39.1L204.3,40.2Z" style="fill:none;fill-rule:nonzero;stroke:rgb(0,0,255);stroke-width:1px;"/>
        </g>
    </g>
</svg>
